<?xml version="1.0" encoding="UTF-8" standalone="no"?>
<svg
   xmlns:dc="http://purl.org/dc/elements/1.1/"
   xmlns:cc="http://creativecommons.org/ns#"
   xmlns:rdf="http://www.w3.org/1999/02/22-rdf-syntax-ns#"
   xmlns:svg="http://www.w3.org/2000/svg"
   xmlns="http://www.w3.org/2000/svg"
   xmlns:sodipodi="http://sodipodi.sourceforge.net/DTD/sodipodi-0.dtd"
   xmlns:inkscape="http://www.inkscape.org/namespaces/inkscape"
   inkscape:version="1.0 (4035a4fb49, 2020-05-01)"
   sodipodi:docname="mail_read.svg"
   id="svg8"
   version="1.1"
   viewBox="0 0 147.03288 147.03239"
   height="147.03239mm"
   width="147.03288mm">
  <defs
     id="defs2" />
  <sodipodi:namedview
     inkscape:window-maximized="0"
     inkscape:window-y="0"
     inkscape:window-x="38"
     inkscape:window-height="1050"
     inkscape:window-width="1624"
     inkscape:snap-smooth-nodes="true"
     inkscape:snap-center="false"
     inkscape:guide-bbox="true"
     showguides="true"
     showgrid="false"
     inkscape:document-rotation="0"
     inkscape:current-layer="layer1"
     inkscape:document-units="mm"
     inkscape:cy="342.34938"
     inkscape:cx="-358.31985"
     inkscape:zoom="0.49497475"
     inkscape:pageshadow="2"
     inkscape:pageopacity="0.0"
     borderopacity="1.0"
     bordercolor="#666666"
     pagecolor="#ffffff"
     id="base">
    <sodipodi:guide
       id="guide837"
       orientation="1,0"
       position="-20.695144,50.575195" />
    <sodipodi:guide
       id="guide842"
       orientation="0,-1"
       position="-87.938544,65.389654" />
    <sodipodi:guide
       id="guide844"
       orientation="0,-1"
       position="-174.84642,88.873792" />
    <sodipodi:guide
       id="guide852"
       orientation="1,0"
       position="-295.41466,73.516143" />
  </sodipodi:namedview>
  <metadata
     id="metadata5">
    <rdf:RDF>
      <cc:Work
         rdf:about="">
        <dc:format>image/svg+xml</dc:format>
        <dc:type
           rdf:resource="http://purl.org/dc/dcmitype/StillImage" />
        <dc:title></dc:title>
      </cc:Work>
    </rdf:RDF>
  </metadata>
  <g
     transform="translate(-248.01146,-54.428684)"
     id="layer1"
     inkscape:groupmode="layer"
     inkscape:label="Layer 1">
    <path
       d="m 321.38786,54.428717 a 73.516373,73.516373 0 0 0 -73.3764,73.516443 73.516373,73.516373 0 0 0 73.51644,73.51592 73.516373,73.516373 0 0 0 73.51644,-73.51592 73.516373,73.516373 0 0 0 -73.51644,-73.516443 73.516373,73.516373 0 0 0 -0.14004,0 z m 1.0852,13.043649 c 1.96734,0 3.82019,0.9461 5.44205,2.438096 0,0 38.45269,31.464258 40.97062,37.306768 1.2256,1.40484 1.96837,3.24343 1.96837,5.26272 v 39.24567 c 0,4.432 -3.56804,8.00003 -8.00005,8.00003 h -80.76199 c -4.432,0 -8.00002,-3.56803 -8.00002,-8.00003 v -39.24567 c 0,-2.00785 0.73398,-3.83718 1.94716,-5.23895 2.32944,-5.89524 40.99182,-37.330538 40.99182,-37.330538 1.50747,-1.625489 3.4747,-2.438096 5.44204,-2.438096 z m 0,10.558529 c -1.82129,0 -3.64236,0.697851 -5.03793,2.093412 0,0 -38.08973,28.720953 -38.05143,32.463133 0.0383,3.74218 3.29799,6.15837 7.12515,7.12463 l 35.96421,9.08007 35.96421,-9.08007 c 5.72679,-1.44587 7.12516,-3.53644 7.12516,-7.12463 0,-3.58819 -38.05143,-32.463133 -38.05143,-32.463133 -1.50146,-1.280949 -3.21665,-2.093412 -5.03794,-2.093412 z"
       style="fill:#999999;stroke:none;stroke-width:1;stroke-linecap:round;stroke-linejoin:round"
       id="path833" />
  </g>
</svg>
