<?xml version="1.0" encoding="UTF-8" standalone="no"?>
<svg
   xmlns:dc="http://purl.org/dc/elements/1.1/"
   xmlns:cc="http://creativecommons.org/ns#"
   xmlns:rdf="http://www.w3.org/1999/02/22-rdf-syntax-ns#"
   xmlns:svg="http://www.w3.org/2000/svg"
   xmlns="http://www.w3.org/2000/svg"
   xmlns:sodipodi="http://sodipodi.sourceforge.net/DTD/sodipodi-0.dtd"
   xmlns:inkscape="http://www.inkscape.org/namespaces/inkscape"
   sodipodi:docname="reply.svg"
   inkscape:version="1.0 (4035a4fb49, 2020-05-01)"
   id="svg8"
   version="1.1"
   viewBox="0 0 147.03275 147.03275"
   height="147.03275mm"
   width="147.03275mm">
  <defs
     id="defs2" />
  <sodipodi:namedview
     inkscape:window-maximized="0"
     inkscape:window-y="0"
     inkscape:window-x="38"
     inkscape:window-height="1024"
     inkscape:window-width="1624"
     inkscape:snap-smooth-nodes="true"
     inkscape:snap-center="true"
     inkscape:guide-bbox="true"
     showguides="true"
     showgrid="false"
     inkscape:document-rotation="0"
     inkscape:current-layer="layer1"
     inkscape:document-units="mm"
     inkscape:cy="292.19393"
     inkscape:cx="108.65877"
     inkscape:zoom="1.4"
     inkscape:pageshadow="2"
     inkscape:pageopacity="0.0"
     borderopacity="1.0"
     bordercolor="#666666"
     pagecolor="#ffffff"
     id="base">
    <sodipodi:guide
       id="guide837"
       orientation="1,0"
       position="348.23592,200.54269" />
    <sodipodi:guide
       id="guide842"
       orientation="0,-1"
       position="280.99251,215.35715" />
    <sodipodi:guide
       id="guide844"
       orientation="0,-1"
       position="194.08463,238.84129" />
    <sodipodi:guide
       id="guide852"
       orientation="1,0"
       position="73.516382,223.48364" />
    <sodipodi:guide
       position="73.516377,73.516378"
       orientation="0,-1"
       id="guide1430" />
  </sodipodi:namedview>
  <metadata
     id="metadata5">
    <rdf:RDF>
      <cc:Work
         rdf:about="">
        <dc:format>image/svg+xml</dc:format>
        <dc:type
           rdf:resource="http://purl.org/dc/dcmitype/StillImage" />
        <dc:title />
      </cc:Work>
    </rdf:RDF>
  </metadata>
  <g
     id="layer1"
     inkscape:groupmode="layer"
     inkscape:label="Layer 1"
     transform="translate(120.91959,-54.428566)">
    <path
       id="circle846"
       style="fill:#999999;stroke:none;stroke-width:3.77953;stroke-linecap:round;stroke-linejoin:round"
       d="M 277.32617,0 C 124.0772,0.29286205 -4.2323288e-4,124.60817 0,277.85742 -1.4359429e-4,431.3139 124.40094,555.71498 277.85742,555.71484 431.3139,555.71498 555.71498,431.3139 555.71484,277.85742 555.71498,124.40094 431.3139,-1.4359429e-4 277.85742,0 Z m 17.60162,51.674081 c 0.23316,-0.0052 0.42441,0.01659 0.57031,0.06641 9.33741,3.188561 10.02243,13.244089 0,24.419922 -16.34488,18.225882 -28.88936,34.337187 -38.94531,48.669917 98.40713,3.98767 217.03506,62.72645 217.03506,168.48544 0,111.62003 -154.6743,258.31529 -290.03168,200.40589 94.30101,-17.08092 175.3181,-88.79076 183.8397,-172.7697 9.05764,-89.26154 -143.92058,-97.23275 -143.92058,-97.23275 -7.94979,43.46188 -3.31313,71.5037 -3.31313,71.5037 3.0854,4.74656 -1.09182,8.16986 -4.24804,8.49414 -4.38871,0.4509 -9.00782,-3.44336 -9.00782,-3.44336 C 197.13419,297.04798 87.330173,193.13307 87.330173,193.13307 61.861222,174.51248 75.912707,167.04442 94.832405,156.58284 c 0,0 185.406095,-104.581553 200.095425,-104.908759 z"
       transform="matrix(0.26458333,0,0,0.26458333,-120.91959,54.428566)"
       sodipodi:nodetypes="ccccscccscscsccsccccc" />
  </g>
</svg>
